# xmcd
#
# Track frame offsets:
#	150
#	87740
#	107780
#	163117
#	169853
#	222506
#
# Disc length: 3274 seconds
#
# Revision: 0
# Processed by: cddbd v1.5.2PL0 Copyright (c) Steve Scherf et al.
# Submitted via: audiograbber 1.83.01
#
DISCID=550cc806
DTITLE=Klaus Schulze and Pete Namlook - The Dark Side Of The Moog [Boxset 3 - Vol
DTITLE=9-11 2016] [CD 1) - Vol. 9
DYEAR=2002
DGENRE=Electronic
TTITLE0=Set The Control For The Heart Of The Mother Part I
TTITLE1=Set The Control For The Heart Of The Mother Part II
TTITLE2=Set The Control For The Heart Of The Mother Part III
TTITLE3=Set The Control For The Heart Of The Mother Part IV
TTITLE4=Set The Control For The Heart Of The Mother Part V
TTITLE5=Set The Control For The Heart Of The Mother Part VI
EXTD=
EXTT0=
EXTT1=
EXTT2=
EXTT3=
EXTT4=
EXTT5=
PLAYORDER=
